<svg xmlns="http://www.w3.org/2000/svg" shape-rendering="geometricPrecision" text-rendering="geometricPrecision" image-rendering="optimizeQuality" fill-rule="evenodd" clip-rule="evenodd" viewBox="0 0 512 456.08"><path fill="#8669C0" d="M253.648 83.482c130.392-219.055 509.908 65.492-.513 372.598-514.787-328.941-101.873-598.695.513-372.598z"/><path fill="#6D569C" d="M344.488 10.579c146.331-39.079 316.84 185.128-65.02 429.134C561.647 215.547 470.393 36.15 344.488 10.579zM121.413.645C170.08-4.2 221.438 18.567 250.749 77.574a200.754 200.754 0 013.537 11.587c10.541 34.29.094 49.643-12.872 50.552-18.136 1.271-20.215-14.85-24.966-27.643C192.689 48.096 158.774 12.621 116.43 1.862c1.653-.434 3.315-.84 4.983-1.217z"/><path fill="#A792D1" d="M130.558 35.501c-42.657-4.246-87.652 23.898-99.173 66.067-7.868 25.593-.07 37.052 9.607 37.731 13.537.948 15.088-11.084 18.635-20.633 17.732-47.748 43.045-74.226 74.65-82.256a106.618 106.618 0 00-3.719-.909z"/></svg>